<mxfile host="app.diagrams.net" agent="Mozilla/5.0 (Macintosh; Intel Mac OS X 10_15_7) AppleWebKit/605.1.15 (KHTML, like Gecko) Version/18.6 Safari/605.1.15" version="28.2.0">
  <diagram name="Page-1" id="1kwKGfHxKlhFWIUKffUW">
    <mxGraphModel dx="1157" dy="769" grid="1" gridSize="10" guides="1" tooltips="1" connect="1" arrows="1" fold="1" page="1" pageScale="1" pageWidth="850" pageHeight="1100" math="0" shadow="0">
      <root>
        <mxCell id="0" />
        <mxCell id="1" parent="0" />
        <mxCell id="vtEaXwLpNf9neww8qiI4-3" value="" style="edgeStyle=none;curved=1;rounded=0;orthogonalLoop=1;jettySize=auto;html=1;fontSize=12;startSize=8;endSize=8;exitX=1;exitY=0.5;exitDx=0;exitDy=0;entryX=0;entryY=0.5;entryDx=0;entryDy=0;" parent="1" source="CA5Caohz3K2_K6KQcvgM-3" target="vtEaXwLpNf9neww8qiI4-2" edge="1">
          <mxGeometry relative="1" as="geometry" />
        </mxCell>
        <mxCell id="CA5Caohz3K2_K6KQcvgM-1" style="edgeStyle=none;curved=1;rounded=0;orthogonalLoop=1;jettySize=auto;html=1;fontSize=12;startSize=8;endSize=8;" edge="1" parent="1" source="vtEaXwLpNf9neww8qiI4-1" target="CA5Caohz3K2_K6KQcvgM-3">
          <mxGeometry relative="1" as="geometry">
            <mxPoint x="360.0000000000001" y="470" as="targetPoint" />
          </mxGeometry>
        </mxCell>
        <mxCell id="CA5Caohz3K2_K6KQcvgM-4" style="edgeStyle=none;curved=1;rounded=0;orthogonalLoop=1;jettySize=auto;html=1;fontSize=12;startSize=8;endSize=8;entryX=0;entryY=0.5;entryDx=0;entryDy=0;exitX=1;exitY=0.5;exitDx=0;exitDy=0;" edge="1" parent="1" source="CA5Caohz3K2_K6KQcvgM-3" target="CA5Caohz3K2_K6KQcvgM-5">
          <mxGeometry relative="1" as="geometry">
            <mxPoint x="360.0000000000001" y="580" as="targetPoint" />
          </mxGeometry>
        </mxCell>
        <mxCell id="CA5Caohz3K2_K6KQcvgM-7" value="" style="edgeStyle=none;curved=1;rounded=0;orthogonalLoop=1;jettySize=auto;html=1;fontSize=12;startSize=8;endSize=8;" edge="1" parent="1" source="vtEaXwLpNf9neww8qiI4-1" target="CA5Caohz3K2_K6KQcvgM-6">
          <mxGeometry relative="1" as="geometry" />
        </mxCell>
        <mxCell id="vtEaXwLpNf9neww8qiI4-1" value="Rust" style="text;strokeColor=none;fillColor=none;html=1;align=center;verticalAlign=middle;whiteSpace=wrap;rounded=0;fontSize=16;" parent="1" vertex="1">
          <mxGeometry x="210" y="390" width="60" height="30" as="geometry" />
        </mxCell>
        <mxCell id="vtEaXwLpNf9neww8qiI4-2" value="tokio: async runtime for Rust" style="shape=document;whiteSpace=wrap;html=1;boundedLbl=1;" parent="1" vertex="1">
          <mxGeometry x="580" y="310" width="120" height="80" as="geometry" />
        </mxCell>
        <mxCell id="CA5Caohz3K2_K6KQcvgM-3" value="warp: web server framework" style="shape=document;whiteSpace=wrap;html=1;boundedLbl=1;" vertex="1" parent="1">
          <mxGeometry x="360" y="370" width="120" height="80" as="geometry" />
        </mxCell>
        <mxCell id="CA5Caohz3K2_K6KQcvgM-5" value="hyper: http library" style="shape=document;whiteSpace=wrap;html=1;boundedLbl=1;" vertex="1" parent="1">
          <mxGeometry x="580" y="410" width="120" height="80" as="geometry" />
        </mxCell>
        <mxCell id="CA5Caohz3K2_K6KQcvgM-11" value="" style="edgeStyle=none;curved=1;rounded=0;orthogonalLoop=1;jettySize=auto;html=1;fontSize=12;startSize=8;endSize=8;" edge="1" parent="1" source="CA5Caohz3K2_K6KQcvgM-6" target="CA5Caohz3K2_K6KQcvgM-10">
          <mxGeometry relative="1" as="geometry" />
        </mxCell>
        <mxCell id="CA5Caohz3K2_K6KQcvgM-13" value="" style="edgeStyle=none;curved=1;rounded=0;orthogonalLoop=1;jettySize=auto;html=1;fontSize=12;startSize=8;endSize=8;" edge="1" parent="1" source="CA5Caohz3K2_K6KQcvgM-6" target="CA5Caohz3K2_K6KQcvgM-10">
          <mxGeometry relative="1" as="geometry" />
        </mxCell>
        <mxCell id="CA5Caohz3K2_K6KQcvgM-15" value="" style="edgeStyle=none;curved=1;rounded=0;orthogonalLoop=1;jettySize=auto;html=1;fontSize=12;startSize=8;endSize=8;" edge="1" parent="1" source="CA5Caohz3K2_K6KQcvgM-6" target="CA5Caohz3K2_K6KQcvgM-14">
          <mxGeometry relative="1" as="geometry" />
        </mxCell>
        <mxCell id="CA5Caohz3K2_K6KQcvgM-6" value="grammar 101" style="shape=document;whiteSpace=wrap;html=1;boundedLbl=1;" vertex="1" parent="1">
          <mxGeometry x="360" y="520" width="120" height="80" as="geometry" />
        </mxCell>
        <mxCell id="CA5Caohz3K2_K6KQcvgM-10" value="crate: a collection of rust source code" style="shape=document;whiteSpace=wrap;html=1;boundedLbl=1;" vertex="1" parent="1">
          <mxGeometry x="120" y="660" width="120" height="80" as="geometry" />
        </mxCell>
        <mxCell id="CA5Caohz3K2_K6KQcvgM-14" value="cargo: package manager and build tool" style="shape=document;whiteSpace=wrap;html=1;boundedLbl=1;" vertex="1" parent="1">
          <mxGeometry x="120" y="520" width="120" height="80" as="geometry" />
        </mxCell>
      </root>
    </mxGraphModel>
  </diagram>
</mxfile>
